# xmcd
#
# Track frame offsets:
#   150
#   21695
#   48465
#   62097
#   72760
#   85788
#   99618
#   123117
#   139205
#   157171
#   174027
#   183242
#   195190
#   210302
#   221351
#
# Disc length: 3357 seconds
#
# Revision: 0
# Processed by: cddbd v1.5.2PL0 Copyright (c) Steve Scherf et al.
# Submitted via: uFREEDB ActiveX Control 1.5
#
DISCID=ca0d1b0f
DTITLE=Vários - Terças de Cordas
DYEAR=2004
DGENRE=Country
TTITLE0=Pra Não Esquecer - Andrea Pinheiro
TTITLE1=Rua Molhada - Delcley and Marcos Puff
TTITLE2=Folha de Outono - Karina Ninni
TTITLE3=13 Cordas - Paulinho Moura and Regional
TTITLE4=Tirando o Time - Nêgo Nelson and Paulinho
TTITLE5=Branca no Samba - Karina Ninni
TTITLE6=Pandeiro do Amarildo - Yuri Quarteto
TTITLE7=Terça-Feira - Luiz Pardal
TTITLE8=Quase Nêgo - Nêgo Nelson and Bob Freitas
TTITLE9=Alô! Cumpadre - Paulinho Moura
TTITLE10=Pauleteando - Paulinho Moura and Regional
TTITLE11=Naquele Tempo - Biratan Porto
TTITLE12=Sob a Chuva - Lanny
TTITLE13=Andarilha - Adamor Ribeiro
TTITLE14=Enfim, Você - Yuri Quarteto
EXTD=
EXTT0=
EXTT1=
EXTT2=
EXTT3=
EXTT4=
EXTT5=
EXTT6=
EXTT7=
EXTT8=
EXTT9=
EXTT10=
EXTT11=
EXTT12=
EXTT13=
EXTT14=
PLAYORDER=
